
<svg viewBox="0 0 1500 1500" version="1.1" xmlns="http://www.w3.org/2000/svg" xmlns:xlink="http://www.w3.org/1999/xlink">
    <script type="text/ecmascript">
	    function detailStrand(evt) {
	      current_id = evt.target.getAttributeNS(null, "dataid");
	      top.CCRZ.processAction('DETAIL', current_id);
	    }

	    function selectStrand(evt) {
	      current_id = evt.target.getAttributeNS(null, "dataid");
	      top.CCRZ.processAction('SELECT', current_id);
	    }
	    
	    function highlightStrand(evt) {
	      current_id = evt.target.getAttributeNS(null, "dataid");
	      top.CCRZ.processAction('HOVER', current_id);
	      evt.target.setAttributeNS(null,"opacity","0.5");
	    }
	    
	    function dehighlightStrand(evt) {
	      current_id = evt.target.getAttributeNS(null, "dataid");
	      top.CCRZ.processAction('REM_HOVER', current_id);
	      evt.target.setAttributeNS(null,"opacity","0");

	    }
    </script>

    <g>
    	<image width="100%" height="100%" id="assembly" xlink:href="turbine_1.jpg"/>

        <path d="M777.751645,797.473085 C759.250548,798.31836 750,798.740997 750,798.740997 C735.203386,801.810546 727.80508,803.345321 727.80508,803.345321 C714.211728,811.601437 707.415052,815.729495 707.415052,815.729495 C696.942324,828.045995 691.705959,834.204246 691.705959,834.204246 C674.639574,842.192223 666.106382,846.186212 666.106382,846.186212 C657.181196,849.378338 652.718603,850.974402 652.718603,850.974402 C646.627903,857.412791 643.582553,860.631986 643.582553,860.631986 C638.208424,867.485249 635.521359,870.91188 635.521359,870.91188 C630.575098,878.678966 628.101968,882.562509 628.101968,882.562509 C625.068436,893.415486 623.551669,898.841974 623.551669,898.841974 C622.122441,909.424976 621.407826,914.716477 621.407826,914.716477 C622.280744,925.126859 622.717203,930.33205 622.717203,930.33205 C626.635924,941.652164 628.595285,947.312221 628.595285,947.312221 C633.1554,956.483993 635.435458,961.069879 635.435458,961.069879 C638.707059,966.468551 640.342859,969.167888 640.342859,969.167888 C645.701444,972.513936 648.380737,974.18696 648.380737,974.18696 C656.598599,968.668844 660.707529,965.909786 660.707529,965.909786 C672.789299,962.249585 678.830184,960.419485 678.830184,960.419485 C684.65918,958.421674 687.573678,957.422768 687.573678,957.422768 C694.485026,956.274967 697.9407,955.701067 697.9407,955.701067 C707.000391,953.331017 711.530237,952.145993 711.530237,952.145993 C718.149522,950.677495 721.459164,949.943246 721.459164,949.943246 C728.347605,947.684459 731.791826,946.555065 731.791826,946.555065 C730.671841,935.455839 730.111848,929.906226 730.111848,929.906226 C730.401457,916.483583 730.546262,909.772261 730.546262,909.772261 C732.145656,898.479144 732.945354,892.832586 732.945354,892.832586 C736.280766,881.645823 737.948473,876.052441 737.948473,876.052441 C743.55249,865.026844 746.354498,859.514046 746.354498,859.514046 C753.768163,850.960762 757.474995,846.68412 757.474995,846.68412 C765.345162,840.39044 769.280246,837.243601 769.280246,837.243601 C773.373223,835.505128 775.419712,834.635892 775.419712,834.635892 C781.357516,836.03976 784.326418,836.741694 784.326418,836.741694 C784.431135,829.855706 784.483494,826.412713 784.483494,826.412713 C783.813466,818.005051 783.478452,813.80122 783.478452,813.80122 L781.728526,801.187274" id="Inner" data-id="WTIN-ASMBLY" opacity="0" onclick="parent.location='/DefaultStore/ccrz__ProductDetails?viewState=DetailView&amp;sku=WTIN-ASMBLY'" onmouseover="highlightStrand(evt)" onmouseout="dehighlightStrand(evt)"></path>

        <path d="M767.781391,948.59368 C764.910256,951.347017 763.474688,952.723686 763.474688,952.723686 C758.836591,950.303871 756.517543,949.093964 756.517543,949.093964 C752.172514,946.105031 750,944.610565 750,944.610565 C746.197136,942.896116 744.295704,942.038891 744.295704,942.038891 C736.021499,945.331542 731.884396,946.977868 731.884396,946.977868 C720.083364,950.355674 714.182848,952.044577 714.182848,952.044577 C701.629615,954.973901 695.352998,956.438563 695.352998,956.438563 C683.499454,958.952048 677.572682,960.208791 677.572682,960.208791 C666.366314,963.539761 660.76313,965.205247 660.76313,965.205247 C652.386738,970.439427 648.198543,973.056517 648.198543,973.056517 C641.555051,977.991236 638.233305,980.458596 638.233305,980.458596 C623.911692,991.632321 616.750885,997.219184 616.750885,997.219184 C603.942188,1008.901 597.537839,1014.74191 597.537839,1014.74191 C584.638311,1029.20828 578.188546,1036.44147 578.188546,1036.44147 C566.776387,1049.94276 561.070308,1056.69341 561.070308,1056.69341 C549.612733,1070.69001 543.883946,1077.68832 543.883946,1077.68832 C532.020467,1092.76923 526.088727,1100.30968 526.088727,1100.30968 C513.243129,1116.46354 506.820331,1124.54047 506.820331,1124.54047 C497.904626,1135.45873 493.446774,1140.91786 493.446774,1140.91786 C488.913701,1146.89431 486.647165,1149.88253 486.647165,1149.88253 C480.435823,1159.62646 477.330151,1164.49842 477.330151,1164.49842 C466.449111,1174.54212 461.00859,1179.56397 461.00859,1179.56397 C449.835916,1191.18735 444.249578,1196.99904 444.249578,1196.99904 C431.930252,1209.00243 425.770589,1215.00413 425.770589,1215.00413 C412.229493,1228.36627 405.458945,1235.04733 405.458945,1235.04733 C301.979696,1331.1805 250.240071,1379.24708 250.240071,1379.24708 C250.639963,1387.5476 250.839909,1391.69787 250.839909,1391.69787 C254.730572,1405.42676 256.675903,1412.2912 256.675903,1412.2912 C261.357512,1423.31585 263.698317,1428.82817 263.698317,1428.82817 C272.089422,1435.37447 276.284974,1438.64762 276.284974,1438.64762 C280.582157,1438.79344 282.730748,1438.86635 282.730748,1438.86635 C420.344429,1314.32759 489.15127,1252.05821 489.15127,1252.05821 C543.09251,1205.91818 570.06313,1182.84817 570.06313,1182.84817 C637.070456,1126.45455 670.574119,1098.25774 670.574119,1098.25774 C687.791571,1083.24522 696.400297,1075.73896 696.400297,1075.73896 C714.958823,1059.88688 724.238086,1051.96085 724.238086,1051.96085 C739.970333,1034.7163 747.836456,1026.09402 747.836456,1026.09402 C755.452287,1017.94068 759.260202,1013.86401 759.260202,1013.86401 C768.272436,1002.67151 772.778554,997.075254 772.778554,997.075254 C772.795351,983.888366 772.803749,977.294922 772.803749,977.294922 C777.826099,972.219941 780.337274,969.682451 780.337274,969.682451 C782.263348,965.510037 783.226385,963.42383 783.226385,963.42383 C780.591471,957.226799 779.274014,954.128284 779.274014,954.128284 L773.138013,950.024738 L767.781391,948.59368 Z" id="Blade" dataid="SSTBLD" opacity="0" onclick="selectStrand(evt)" onmouseover="highlightStrand(evt)" onmouseout="dehighlightStrand(evt)"></path>
    </g>
</svg>