<svg viewBox="0 0 1440 777" version="1.1" xmlns="http://www.w3.org/2000/svg" xmlns:xlink="http://www.w3.org/1999/xlink">
    <script type="text/ecmascript">
	    function detailStrand(evt) {
	      current_id = evt.target.getAttributeNS(null, "dataid");
	      top.CCRZ.processAction('DETAIL', current_id);
	    }

	    function selectStrand(evt) {
	      current_id = evt.target.getAttributeNS(null, "dataid");
	      top.CCRZ.processAction('SELECT', current_id);
	    }
	    
	    function highlightStrand(evt) {
	      current_id = evt.target.getAttributeNS(null, "dataid");
	      top.CCRZ.processAction('HOVER', current_id);
	      evt.target.setAttributeNS(null,"opacity","0.5");
	    }
	    
	    function dehighlightStrand(evt) {
	      current_id = evt.target.getAttributeNS(null, "dataid");
	      top.CCRZ.processAction('REM_HOVER', current_id);
	      evt.target.setAttributeNS(null,"opacity","0");

	    }
    </script>

    <g>
    	<image width="100%" height="100%" id="assembly" xlink:href="turbine_2.png"/>
        
        <polygon id="Hydraulic-Unit" points="995.41289 368.591467 1017.21889 364.642965 1017.21889 358.765175 1010.23544 352.798142 1010.23544 308.92931 1011.69671 306.301063 1013.86921 303.645566 1017.21889 301.344999 1020.60537 300.364005 1029.31169 300.364005 1032.20766 301.344999 1035.45516 303.645566 1037.65831 306.301063 1038.76534 308.92931 1038.76534 350.302738 1031.0986 358.765175 1031.0986 361.367535 1035.45516 359.836094 1057.4853 369.668517 1057.4853 408.259055 1013.86921 419.033641 993.758144 410.008495 993.758144 368.591467" dataid="WT-HYD-UNIT" opacity="0" onclick="selectStrand(evt)" onmouseover="highlightStrand(evt)" onmouseout="dehighlightStrand(evt)"></polygon>

        <path id="Yaw-Motor" d="M866.149627,415.964569 C868.23919,416.594306 869.283972,416.909175 869.283972,416.909175 C871.462854,417.401246 872.552295,417.647282 872.552295,417.647282 L874.747565,418.285213 L885.921813,418.285213 L888.861951,417.647282 L893.028786,416.909175 L896.349963,415.964569 C896.349963,427.419883 896.349963,433.14754 896.349963,433.14754 C894.480008,433.913303 893.545031,434.296185 893.545031,434.296185 C893.511434,437.231817 893.494636,438.699633 893.494636,438.699633 C893.528233,445.818488 893.545031,449.377916 893.545031,449.377916 L897.795449,447.712411 L897.795449,463.169034 C894.961837,463.933732 893.545031,464.316081 893.545031,464.316081 L894.578494,505.394776 L891.981014,508.268218 L885.921813,509.622307 C881.880405,509.622307 879.859701,509.622307 879.859701,509.622307 L874.660063,509.193551 C871.076002,509.193551 869.283972,509.193551 869.283972,509.193551 C865.481482,507.778917 863.580236,507.0716 863.580236,507.0716 L859.836809,505.135183 L859.836809,466.708538 C861.402677,464.348868 862.185611,463.169034 862.185611,463.169034 C861.536501,461.985362 861.211946,461.393527 861.211946,461.393527 C861.211946,451.109626 861.211946,445.967676 861.211946,445.967676 C865.986465,444.295269 868.373725,443.459065 868.373725,443.459065 C868.373725,438.311398 868.373725,435.737565 868.373725,435.737565 L865.161176,434.476244 L866.149627,415.964569 Z" dataid="WT-YAW-MTR" opacity="0" onclick="selectStrand(evt)" onmouseover="highlightStrand(evt)" onmouseout="dehighlightStrand(evt)"></path>

        <path id="Gearbox" d="M595.434553,321.362932 C596.926237,316.736422 597.672079,314.423167 597.672079,314.423167 C600.762876,307.863808 602.308275,304.584128 602.308275,304.584128 C607.582004,296.86682 610.218868,293.008167 610.218868,293.008167 C615.349944,286.509567 617.915482,283.260267 617.915482,283.260267 C623.651509,278.450598 626.519523,276.045764 626.519523,276.045764 C632.908932,272.591291 636.103637,270.864055 636.103637,270.864055 C641.567569,268.70666 644.299534,267.627963 644.299534,267.627963 C651.031485,267.239632 654.397461,267.045467 654.397461,267.045467 C662.935459,267.816845 667.204458,268.202535 667.204458,268.202535 C673.043512,270.017388 675.963038,270.924814 675.963038,270.924814 C681.670007,274.160906 684.523491,275.778951 684.523491,275.778951 C686.59547,276.685938 687.63146,277.139431 687.63146,277.139431 C704.347303,276.243011 712.705225,275.794802 712.705225,275.794802 C717.568408,279.580368 720,281.473152 720,281.473152 C727.25697,286.229986 730.885455,288.608403 730.885455,288.608403 C736.691047,294.907114 739.593843,298.056469 739.593843,298.056469 C744.372692,305.951652 746.762116,309.899243 746.762116,309.899243 C750.03255,318.212696 751.667767,322.369423 751.667767,322.369423 C755.315964,333.270869 757.140063,338.721591 757.140063,338.721591 C758.358771,349.561397 758.968125,354.9813 758.968125,354.9813 C758.88359,405.606099 758.841323,430.918498 758.841323,430.918498 C717.256447,437.201359 696.464008,440.342789 696.464008,440.342789 C688.136466,445.888614 683.972695,448.661526 683.972695,448.661526 C674.524189,452.66019 669.799935,454.659522 669.799935,454.659522 C660.285386,455.851813 655.528111,456.447958 655.528111,456.447958 C647.427756,456.054344 643.377578,455.857537 643.377578,455.857537 C637.913647,453.749454 635.181681,452.695413 635.181681,452.695413 C638.780567,451.20549 640.58001,450.460529 640.58001,450.460529 C640.451447,441.433815 640.387166,436.920458 640.387166,436.920458 C639.881719,425.647412 639.628996,420.010889 639.628996,420.010889 C639.038134,404.735656 638.742703,397.09804 638.742703,397.09804 C638.045292,377.359203 637.696587,367.489784 637.696587,367.489784 C636.705066,354.29974 636.209306,347.704717 636.209306,347.704717 C635.685367,333.298606 635.423398,326.095551 635.423398,326.095551 C625.628827,322.375147 620.731542,320.514944 620.731542,320.514944 C614.281373,318.011486 611.056289,316.759757 611.056289,316.759757 L605.359447,322.96777 C598.742851,321.897878 595.434553,321.362932 595.434553,321.362932 Z" dataid="WT-GBOX" opacity="0" onclick="selectStrand(evt)" onmouseover="highlightStrand(evt)" onmouseout="dehighlightStrand(evt)"></path>

        <path id="Generator" d="M798.503438,304.793309 C801.151397,296.674658 802.475377,292.615333 802.475377,292.615333 C807.170684,285.263744 809.518337,281.587949 809.518337,281.587949 C816.840797,276.900965 820.502027,274.557472 820.502027,274.557472 C826.060106,272.847188 828.839145,271.992045 828.839145,271.992045 L881.689439,270.493986 L881.689439,266.874181 L894.964243,266.874181 L894.964243,264.083657 L954.32698,261.878892 L955.825316,265.304616 C976.065133,265.304616 986.185041,265.304616 986.185041,265.304616 C988.510757,267.684522 989.673615,268.874475 989.673615,268.874475 C991.896537,271.427567 993.007998,272.704113 993.007998,272.704113 C994.494043,275.330948 995.237065,276.644366 995.237065,276.644366 C997.063336,279.972883 997.976471,281.637141 997.976471,281.637141 C999.647433,285.656724 1000.48291,287.666516 1000.48291,287.666516 C1002.09466,292.984992 1002.90053,295.64423 1002.90053,295.64423 C1001.06867,296.603455 1000.15274,297.083067 1000.15274,297.083067 C997.685128,297.976929 996.45132,298.42386 996.45132,298.42386 C995.940701,288.860659 995.685392,284.079059 995.685392,284.079059 C989.308808,282.414242 986.120516,281.581833 986.120516,281.581833 C974.403109,279.99076 968.544406,279.195223 968.544406,279.195223 C925.672575,289.618765 904.236659,294.830536 904.236659,294.830536 C903.959003,352.173426 903.820175,380.844871 903.820175,380.844871 C883.747957,382.949915 873.711848,384.002437 873.711848,384.002437 C875.93801,379.827484 877.051091,377.740008 877.051091,377.740008 C878.240901,371.594673 878.835805,368.522006 878.835805,368.522006 C877.362323,364.08946 876.625582,361.873187 876.625582,361.873187 C873.170428,357.049415 871.442851,354.637529 871.442851,354.637529 C876.450808,350.06113 878.954786,347.772931 878.954786,347.772931 C880.123086,344.750679 880.707235,343.239553 880.707235,343.239553 C881.349867,337.700551 881.671183,334.93105 881.671183,334.93105 C879.084523,331.855022 877.791193,330.317007 877.791193,330.317007 C857.174543,332.797459 846.866217,334.037684 846.866217,334.037684 C837.167586,335.266482 832.31827,335.880881 832.31827,335.880881 C833.922161,327.160986 834.724106,322.801038 834.724106,322.801038 C831.443726,313.821671 829.803536,309.331987 829.803536,309.331987 L822.846173,303.73988 C806.617683,304.442166 798.503438,304.793309 798.503438,304.793309 Z" dataid="WT-GEN" opacity="0" onclick="selectStrand(evt)" onmouseover="highlightStrand(evt)" onmouseout="dehighlightStrand(evt)"></path>
    </g>
</svg>