<?xml version="1.0" encoding="UTF-8"?>
<svg width="145px" height="36px" viewBox="0 0 145 36" version="1.1" xmlns="http://www.w3.org/2000/svg" xmlns:xlink="http://www.w3.org/1999/xlink">
    <!-- Generator: Sketch 53.1 (72631) - https://sketchapp.com -->
    <title>g14</title>
    <desc>Created with Sketch.</desc>
    <g id="Symbols" stroke="none" stroke-width="1" fill="none" fill-rule="evenodd">
        <g id="Footer" transform="translate(-596.000000, -367.000000)">
            <g id="Built-on-Salesforce">
                <g transform="translate(536.000000, 330.000000)">
                    <g id="salesforce-b2b-commerce" transform="translate(50.000000, 0.000000)">
                        <g id="g10" transform="translate(99.000000, 55.000000) scale(-1, 1) rotate(-180.000000) translate(-99.000000, -55.000000) ">
                            <g id="g12">
                                <g id="g14-Clipped">
                                    <g id="g14" transform="translate(9.920960, 37.361111)">
                                        <g id="g20" transform="translate(0.113127, 0.070458)" fill="#2D9EDF">
                                            <path d="M20.9597742,31.25 C22.5822004,32.9298611 24.8408257,33.9723611 27.3389513,33.9723611 C30.659259,33.9723611 33.5565984,32.1319444 35.0989584,29.3995833 C36.4402442,29.9951389 37.9241962,30.3265278 39.4854199,30.3265278 C45.4746055,30.3265278 50.3300071,25.4581944 50.3300071,19.4526389 C50.3300071,13.4470833 45.4746055,8.57875 39.4854199,8.57875 C38.754343,8.57875 38.0398941,8.65166667 37.34906,8.79027778 C35.9907269,6.38194444 33.4013564,4.75444444 30.4299591,4.75444444 C29.1862061,4.75444444 28.0095243,5.03986111 26.9618151,5.54791667 C25.5847579,2.32763889 22.3755371,0.0697222222 18.6361736,0.0697222222 C14.7414284,0.0697222222 11.4219591,2.51902778 10.1484432,5.95430556 C9.59147212,5.83722222 9.01423994,5.77555556 8.42261538,5.77555556 C3.78561468,5.77555556 0.0265490473,9.55083333 0.0265490473,14.2077778 C0.0265490473,17.3291667 1.71520819,20.0540278 4.22493155,21.5119444 C3.70820325,22.6940278 3.42119407,23.9979167 3.42119407,25.36875 C3.42119407,30.725 7.79549894,35.0670833 13.1913832,35.0670833 C16.3593832,35.0670833 19.1747001,33.57 20.9597742,31.25" id="path22"></path>
                                        </g>
                                        <g id="g24" transform="translate(7.285911, 16.294347)" fill="#FFFFFF">
                                            <path d="M0.139731828,0.694444444 C0.108012703,0.612361111 0.151050106,0.595277778 0.161250529,0.580833333 C0.255569513,0.512777778 0.351705011,0.46375 0.448539167,0.408472222 C0.961354975,0.138472222 1.44608469,0.0593055556 1.95247283,0.0593055556 C2.98439238,0.0593055556 3.625482,0.604722222 3.625482,1.48263889 L3.625482,1.5 C3.625482,2.31194444 2.9019506,2.60708333 2.22383204,2.81986111 L2.13510233,2.84847222 C1.62382357,3.01347222 1.18213126,3.15597222 1.18213126,3.49097222 L1.18213126,3.50833333 C1.18213126,3.79486111 1.44049541,4.00569444 1.84012844,4.00569444 C2.28475512,4.00569444 2.81154411,3.85875 3.15123218,3.67236111 C3.15123218,3.67236111 3.25128017,3.60819444 3.28775018,3.70430556 C3.30745236,3.75597222 3.47946224,4.21569444 3.49748765,4.26555556 C3.51705011,4.31958333 3.48267608,4.35986111 3.44746366,4.38111111 C3.05942837,4.61569444 2.52369654,4.77569444 1.96910092,4.77569444 L1.86611856,4.77527778 C0.921671136,4.77527778 0.262136909,4.20777778 0.262136909,3.39527778 L0.262136909,3.37791667 C0.262136909,2.52166667 0.989441073,2.24333333 1.67105293,2.04972222 L1.78060268,2.01625 C2.27693013,1.86486111 2.70534792,1.73416667 2.70534792,1.38694444 L2.70534792,1.36958333 C2.70534792,1.05180556 2.42686239,0.815833333 1.97832322,0.815833333 C1.80421736,0.815833333 1.24920254,0.818888889 0.649194072,1.19597222 C0.576533522,1.23791667 0.534893437,1.26819444 0.479000706,1.30222222 C0.44951729,1.32027778 0.375599153,1.35222222 0.343460833,1.25597222 L0.139731828,0.694444444 Z" id="path26"></path>
                                        </g>
                                        <g id="g28" transform="translate(22.391956, 16.294347)" fill="#FFFFFF">
                                            <path d="M0.139731828,0.694444444 C0.108012703,0.612361111 0.151050106,0.595277778 0.161250529,0.580833333 C0.255569513,0.512777778 0.351705011,0.46375 0.448539167,0.408472222 C0.961354975,0.138472222 1.44608469,0.0593055556 1.95247283,0.0593055556 C2.98439238,0.0593055556 3.625482,0.604722222 3.625482,1.48263889 L3.625482,1.5 C3.625482,2.31194444 2.9019506,2.60708333 2.22383204,2.81986111 L2.13524206,2.84847222 C1.62382357,3.01347222 1.18213126,3.15597222 1.18213126,3.49097222 L1.18213126,3.50833333 C1.18213126,3.79486111 1.44049541,4.00569444 1.84026817,4.00569444 C2.28475512,4.00569444 2.81154411,3.85875 3.15123218,3.67236111 C3.15123218,3.67236111 3.25128017,3.60819444 3.28788991,3.70430556 C3.30745236,3.75597222 3.47946224,4.21569444 3.49762738,4.26555556 C3.51705011,4.31958333 3.48267608,4.35986111 3.44746366,4.38111111 C3.05942837,4.61569444 2.52369654,4.77569444 1.96910092,4.77569444 L1.86611856,4.77527778 C0.921810868,4.77527778 0.262136909,4.20777778 0.262136909,3.39527778 L0.262136909,3.37791667 C0.262136909,2.52166667 0.989441073,2.24333333 1.67119266,2.04972222 L1.78060268,2.01625 C2.27693013,1.86486111 2.70548765,1.73416667 2.70548765,1.38694444 L2.70548765,1.36958333 C2.70548765,1.05180556 2.42686239,0.815833333 1.97832322,0.815833333 C1.80421736,0.815833333 1.24920254,0.818888889 0.649194072,1.19597222 C0.576533522,1.23791667 0.534055046,1.26694444 0.479140438,1.30222222 C0.460416373,1.31416667 0.373363444,1.34777778 0.343460833,1.25597222 L0.139731828,0.694444444 Z" id="path30"></path>
                                        </g>
                                        <g id="g32" transform="translate(29.490654, 16.347931)" fill="#FFFFFF" fill-rule="nonzero">
                                            <path d="M3.35356387,2.36111111 C3.35356387,1.865 3.26050247,1.47333333 3.07717431,1.1975 C2.89552294,0.923472222 2.62108963,0.790416667 2.23836415,0.790416667 C1.85535921,0.790416667 1.58232322,0.923333333 1.40360621,1.19722222 C1.22307269,1.47319444 1.13140861,1.865 1.13140861,2.36111111 C1.13140861,2.85694444 1.22293296,3.24708333 1.40346648,3.52055556 C1.58232322,3.79152778 1.85535921,3.92305556 2.23836415,3.92305556 C2.62108963,3.92305556 2.89552294,3.79138889 3.07731404,3.52027778 C3.2606422,3.24708333 3.35356387,2.85694444 3.35356387,2.36111111 M4.21515032,3.28111111 C4.1303331,3.56555556 3.99842625,3.81597222 3.82306281,4.02486111 C3.6474199,4.23430556 3.42496683,4.4025 3.16157234,4.52472222 C2.8984573,4.64680556 2.58783345,4.70861111 2.23836415,4.70861111 C1.88889485,4.70861111 1.57799153,4.64680556 1.31473677,4.52472222 C1.051482,4.4025 0.829028934,4.23430556 0.653106563,4.02458333 C0.477743119,3.81527778 0.345836274,3.565 0.261158786,3.28111111 C0.177319689,2.99861111 0.13456175,2.68916667 0.13456175,2.36111111 C0.13456175,2.03291667 0.177319689,1.72319444 0.261158786,1.44111111 C0.345836274,1.15722222 0.477463656,0.906944444 0.653246295,0.697361111 C0.829308398,0.487638889 1.05204093,0.320694444 1.31515596,0.201527778 C1.57855046,0.0825 1.88917431,0.0219444444 2.23836415,0.0219444444 C2.58755399,0.0219444444 2.89775865,0.0825 3.16115314,0.201527778 C3.4244079,0.320694444 3.64714044,0.487638889 3.82306281,0.697361111 C3.99842625,0.90625 4.1303331,1.15666667 4.21515032,1.44111111 C4.29926888,1.72375 4.34174735,2.03333333 4.34174735,2.36111111 C4.34174735,2.68875 4.29926888,2.99833333 4.21515032,3.28111111" id="path34"></path>
                                        </g>
                                        <g id="g36" transform="translate(37.425074, 16.298833)" fill="#FFFFFF">
                                            <path d="M3.35356387,0.972222222 C3.32519831,1.05555556 3.24373465,1.02402778 3.24373465,1.02402778 C3.11825547,0.976388889 2.98523077,0.9325 2.8431235,0.910416667 C2.69947918,0.888055556 2.54088356,0.876805556 2.37096965,0.876805556 C1.95442908,0.876805556 1.62284545,1.00013889 1.386,1.24347222 C1.14831616,1.48736111 1.01445307,1.88111111 1.01599012,2.41402778 C1.01738744,2.89861111 1.1353211,3.26319444 1.34659562,3.54152778 C1.55647283,3.81777778 1.87631898,3.95930556 2.30208186,3.95930556 C2.65755963,3.95930556 2.92863938,3.91847222 3.21271418,3.83 C3.21271418,3.83 3.28020466,3.80055556 3.31248271,3.88916667 C3.38807763,4.09708333 3.44397036,4.24541667 3.52445589,4.47402778 C3.54737191,4.53916667 3.49119972,4.56694444 3.47079887,4.575 C3.35915314,4.61805556 3.09533945,4.68902778 2.89636133,4.71902778 C2.7100988,4.74708333 2.49253634,4.76222222 2.25010162,4.76222222 C1.88833592,4.76222222 1.5655554,4.70055556 1.2898645,4.57861111 C1.01473253,4.45652778 0.781240649,4.28833333 0.596375441,4.07902778 C0.411370501,3.86958333 0.270520819,3.61930556 0.177319689,3.33541667 C0.0839788285,3.05263889 0.0367494707,2.7425 0.0367494707,2.41375 C0.0367494707,1.70347222 0.229579393,1.13 0.609649965,0.709583333 C0.991257586,0.287777778 1.56345942,0.0736111111 2.31046577,0.0736111111 C2.75159915,0.0736111111 3.20433028,0.162361111 3.5301849,0.289861111 C3.5301849,0.289861111 3.59236556,0.319583333 3.56525759,0.391527778 L3.35356387,0.972222222 Z" id="path38"></path>
                                        </g>
                                        <g id="g40" transform="translate(41.167805, 16.267903)" fill="#FFFFFF">
                                            <path d="M1.11785462,2.91666667 C1.15907551,3.19263889 1.23522936,3.42166667 1.35344248,3.60055556 C1.53229922,3.87152778 1.80421736,4.02097222 2.18708257,4.02097222 C2.56994778,4.02097222 2.82230346,3.87138889 3.0042343,3.60027778 C3.12426394,3.42138889 3.17680311,3.18263889 3.19748342,2.91638889 L1.11785462,2.91666667 Z M4.01756951,3.5225 C3.94448977,3.79708333 3.76339732,4.07402778 3.644765,4.20097222 C3.45696542,4.40166667 3.27349753,4.54236111 3.09100776,4.62013889 C2.85332392,4.72166667 2.56799153,4.78861111 2.25611009,4.78861111 C1.89196895,4.78861111 1.56150318,4.72763889 1.29321807,4.60277778 C1.02479323,4.4775 0.799126323,4.30611111 0.621946366,4.09361111 C0.44490614,3.88097222 0.312021171,3.62791667 0.22706422,3.34097222 C0.142247001,3.05569444 0.0992095977,2.74444444 0.0992095977,2.41625 C0.0992095977,2.08208333 0.143644319,1.77055556 0.231535639,1.49083333 C0.319985886,1.20833333 0.462232886,0.960416667 0.653944954,0.754305556 C0.845657022,0.547222222 1.0922837,0.384861111 1.38725759,0.271527778 C1.68055469,0.15875 2.03673112,0.100138889 2.44544672,0.10125 C3.28775018,0.103888889 3.73097953,0.290833333 3.91402823,0.39125 C3.94630628,0.409027778 3.97690755,0.440277778 3.93862103,0.529722222 L3.74788709,1.06041667 C3.71868313,1.13958333 3.6381976,1.11069444 3.6381976,1.11069444 C3.42929852,1.03333333 3.13320677,0.895 2.44111503,0.896388889 C1.9892223,0.897222222 1.65414538,1.03 1.44356951,1.2375 C1.2283825,1.44944444 1.1226055,1.76125 1.1045801,2.20138889 L4.01980522,2.19902778 C4.01980522,2.19902778 4.096518,2.19986111 4.10448271,2.27444444 C4.10769654,2.30527778 4.20481016,2.86986111 4.01756951,3.5225 L4.01756951,3.5225 Z" id="path42"></path>
                                        </g>
                                        <g id="g44" transform="translate(17.816968, 16.267903)" fill="#FFFFFF">
                                            <path d="M1.11785462,2.91666667 C1.15907551,3.19263889 1.23522936,3.42166667 1.35330275,3.60055556 C1.53215949,3.87152778 1.80421736,4.02097222 2.18708257,4.02097222 C2.56994778,4.02097222 2.82230346,3.87138889 3.0042343,3.60027778 C3.12426394,3.42138889 3.17680311,3.18263889 3.19734368,2.91638889 L1.11785462,2.91666667 Z M4.01742978,3.5225 C3.94435004,3.79708333 3.76339732,4.07402778 3.64462526,4.20097222 C3.45696542,4.40166667 3.27349753,4.54236111 3.09100776,4.62013889 C2.85318419,4.72166667 2.5678518,4.78861111 2.25597036,4.78861111 C1.89210868,4.78861111 1.56136344,4.72763889 1.29321807,4.60277778 C1.02479323,4.4775 0.799126323,4.30611111 0.621946366,4.09361111 C0.444766408,3.88097222 0.312021171,3.62791667 0.22706422,3.34097222 C0.142247001,3.05569444 0.0992095977,2.74444444 0.0992095977,2.41625 C0.0992095977,2.08208333 0.143644319,1.77055556 0.231535639,1.49083333 C0.320125618,1.20833333 0.462232886,0.960416667 0.653944954,0.754305556 C0.845657022,0.547222222 1.0922837,0.384861111 1.38725759,0.271527778 C1.68069442,0.15875 2.03673112,0.100138889 2.44544672,0.10125 C3.28775018,0.103888889 3.73097953,0.290833333 3.91402823,0.39125 C3.94630628,0.409027778 3.97676782,0.440277778 3.93862103,0.529722222 L3.74802682,1.06041667 C3.71868313,1.13958333 3.6381976,1.11069444 3.6381976,1.11069444 C3.42929852,1.03333333 3.13320677,0.895 2.4409753,0.896388889 C1.9892223,0.897222222 1.65414538,1.03 1.44370924,1.2375 C1.22852223,1.44944444 1.1226055,1.76125 1.1045801,2.20138889 L4.01980522,2.19902778 C4.01980522,2.19902778 4.096518,2.19986111 4.10448271,2.27444444 C4.10769654,2.30527778 4.20481016,2.86986111 4.01742978,3.5225 L4.01742978,3.5225 Z" id="path46"></path>
                                        </g>
                                        <g id="g48" transform="translate(11.374911, 16.314694)" fill="#FFFFFF" fill-rule="nonzero">
                                            <path d="M1.25758645,0.972222222 C1.14342555,1.06277778 1.12763585,1.08527778 1.08934933,1.14402778 C1.03164008,1.23291667 1.00215667,1.35958333 1.00215667,1.52097222 C1.00215667,1.77555556 1.08711362,1.95888889 1.26233733,2.08208333 C1.26052082,2.08152778 1.51371489,2.29902778 2.10799435,2.29138889 C2.52579252,2.28597222 2.89957516,2.22458333 2.89957516,2.22458333 L2.89957516,0.906944444 L2.89971489,0.906944444 C2.89971489,0.906944444 2.52928582,0.827916667 2.11232604,0.802916667 C1.51916443,0.767361111 1.25576994,0.972777778 1.25758645,0.972222222 M2.41791955,3.00888889 C2.29942696,3.01736111 2.14628088,3.02180556 1.96267325,3.02180556 C1.71297248,3.02180556 1.47137615,2.99097222 1.24473112,2.93027778 C1.01682851,2.86930556 0.812121383,2.77472222 0.635919548,2.64958333 C0.458739591,2.52319444 0.316352858,2.36263889 0.213091037,2.17166667 C0.109549753,1.98055556 0.0570105857,1.75569444 0.0570105857,1.50375 C0.0570105857,1.24694444 0.102004234,1.02416667 0.190733945,0.842083333 C0.279743119,0.659166667 0.407737474,0.506527778 0.570804517,0.388611111 C0.733033169,0.27125 0.932849682,0.185277778 1.16480452,0.132916667 C1.39368525,0.0809722222 1.65344672,0.0545833333 1.93682287,0.0545833333 C2.23598871,0.0545833333 2.5340367,0.0793055556 2.82244319,0.127916667 C3.10875371,0.176388889 3.45934086,0.247222222 3.55673394,0.269583333 C3.6539873,0.291944444 3.76116161,0.321111111 3.76116161,0.321111111 C3.83340296,0.339166667 3.82767396,0.415972222 3.82767396,0.415972222 L3.82627664,3.06611111 C3.82627664,3.64763889 3.67033592,4.07805556 3.36278617,4.34569444 C3.0569132,4.61166667 2.60641778,4.74625 2.02373606,4.74625 C1.80477629,4.74625 1.45321101,4.71680556 1.24221595,4.67472222 C1.24221595,4.67472222 0.605737474,4.55222222 0.343460833,4.34791667 C0.343460833,4.34791667 0.28589132,4.31263889 0.317330981,4.23263889 L0.523854622,3.68152778 C0.549565279,3.61013889 0.619431193,3.63458333 0.619431193,3.63458333 C0.619431193,3.63458333 0.641508821,3.64319444 0.66735921,3.65847222 C1.22824277,3.96138889 1.93780099,3.9525 1.93780099,3.9525 C2.25289626,3.9525 2.49533098,3.88930556 2.65825829,3.76513889 C2.81755258,3.64375 2.89831757,3.46097222 2.89831757,3.07472222 L2.89831757,2.95208333 C2.64805787,2.98805556 2.41791955,3.00888889 2.41791955,3.00888889" id="path50"></path>
                                        </g>
                                        <g id="g52" transform="translate(34.514586, 16.372069)" fill="#FFFFFF">
                                            <path d="M2.79463656,4.44444444 C2.81699365,4.51 2.77004375,4.54152778 2.75104023,4.54875 C2.7012957,4.56763889 2.45341143,4.61972222 2.26225829,4.63152778 C1.89588144,4.65375 1.69257163,4.59263889 1.51050106,4.51111111 C1.32968807,4.43013889 1.12931263,4.29930556 1.01780663,4.15 L1.01752717,4.50319444 C1.01752717,4.55166667 0.982733945,4.59097222 0.933967537,4.59097222 L0.186402258,4.59097222 C0.13763585,4.59097222 0.102842625,4.55166667 0.102842625,4.50319444 L0.102842625,0.18 C0.102842625,0.131527778 0.142386733,0.0922222222 0.19115314,0.0922222222 L0.957442484,0.0922222222 C1.00606916,0.0922222222 1.04561327,0.131527778 1.04561327,0.18 L1.04561327,2.33986111 C1.04561327,2.62986111 1.07803105,2.91875 1.14202823,3.10041667 C1.20532675,3.28027778 1.29112209,3.42375 1.39759774,3.52680556 C1.50393366,3.62944444 1.62522089,3.70152778 1.75768666,3.74194444 C1.89336627,3.78319444 2.04315879,3.79666667 2.14893578,3.79666667 C2.3013832,3.79666667 2.46920113,3.75791667 2.46920113,3.75791667 C2.52551306,3.75152778 2.55667325,3.78569444 2.57567678,3.83611111 C2.62570078,3.96847222 2.76766831,4.36569444 2.79463656,4.44444444" id="path54"></path>
                                        </g>
                                        <g id="g56" transform="translate(24.948950, 14.347736)" fill="#FFFFFF">
                                            <path d="M5.17007763,8.47222222 C5.07701623,8.50097222 4.99247848,8.51986111 4.88181087,8.54027778 C4.76988567,8.56041667 4.63672124,8.57083333 4.48567114,8.57083333 C3.95846295,8.57083333 3.54276076,8.4225 3.25086097,8.13013889 C2.96091743,7.83972222 2.76375582,7.3975 2.66496542,6.81569444 L2.62919407,6.61972222 L1.9672844,6.61972222 C1.9672844,6.61972222 1.88651941,6.6225 1.86961186,6.53527778 L1.76104023,5.93263889 C1.75335498,5.875 1.77822724,5.83902778 1.85605787,5.83916667 L2.50022159,5.83916667 L1.84641637,2.21208333 C1.79541426,1.92 1.73686662,1.67986111 1.67189132,1.49777778 C1.60775441,1.31805556 1.54543402,1.18347222 1.46844178,1.08555556 C1.39410445,0.991111111 1.32353987,0.921388889 1.20169372,0.880833333 C1.1010868,0.847361111 0.98538885,0.831805556 0.858652082,0.831805556 C0.788087509,0.831805556 0.694047989,0.843472222 0.625020466,0.857222222 C0.555713479,0.870972222 0.519522936,0.886388889 0.467542696,0.908055556 C0.467542696,0.908055556 0.391947777,0.936666667 0.362184898,0.861527778 C0.33787156,0.8 0.166280875,0.330416667 0.145740296,0.2725 C0.12533945,0.215138889 0.154263938,0.169861111 0.190733945,0.156944444 C0.276529287,0.126527778 0.340386733,0.106805556 0.457062809,0.0793055556 C0.619431193,0.0413888889 0.75608892,0.0390277778 0.884223006,0.0390277778 C1.15250812,0.0390277778 1.39717855,0.0766666667 1.5997897,0.149305556 C1.8039379,0.222777778 1.98167678,0.350138889 2.13873536,0.523055556 C2.30850953,0.709722222 2.41526464,0.904861111 2.51768807,1.17138889 C2.61871418,1.43541667 2.70492872,1.76291667 2.77395625,2.14486111 L3.43069584,5.83916667 L4.39107269,5.83916667 C4.39107269,5.83916667 4.47183769,5.83625 4.48874524,5.92361111 L4.59731687,6.52611111 C4.60500212,6.58388889 4.58012985,6.61986111 4.50229922,6.61972222 L3.5701482,6.61972222 C3.57489908,6.64055556 3.61723783,6.96625 3.72413267,7.27319444 C3.76982498,7.40416667 3.85562032,7.50972222 3.92856034,7.58236111 C4.00024277,7.65361111 4.08254481,7.70444444 4.17267184,7.73347222 C4.26517431,7.76319444 4.37053211,7.77805556 4.48567114,7.77805556 C4.57342272,7.77805556 4.65977699,7.76791667 4.72503176,7.75416667 C4.81557798,7.735 4.8507904,7.72486111 4.87426535,7.71777778 C4.96928299,7.68916667 4.98199859,7.71708333 5.00072265,7.76263889 L5.22373465,8.37125 C5.24665067,8.43638889 5.19047848,8.46430556 5.17007763,8.47222222" id="path58"></path>
                                        </g>
                                        <g id="g60" transform="translate(16.115425, 16.413167)" fill="#FFFFFF">
                                            <path d="M0.978122795,0.138888889 C0.978122795,0.0904166667 0.943189838,0.0511111111 0.894563162,0.0511111111 L0.121287227,0.0511111111 C0.0725208186,0.0511111111 0.0377275935,0.0904166667 0.0377275935,0.138888889 L0.0377275935,6.32416667 C0.0377275935,6.37263889 0.0725208186,6.41194444 0.121287227,6.41194444 L0.894563162,6.41194444 C0.943189838,6.41194444 0.978122795,6.37263889 0.978122795,6.32416667 L0.978122795,0.138888889 Z" id="path62"></path>
                                        </g>
                                        <g id="g64" transform="translate(54.026822, 16.202194)" fill="#FFFFFF">
                                            <path d="M3.21383204,6.80555556 C3.6162597,6.80555556 3.99982357,6.74486111 4.36452364,6.62416667 C4.72922371,6.50333333 5.05396048,6.33458333 5.33915314,6.11805556 L4.91157375,5.38041667 C4.42516725,5.73861111 3.85925335,5.91791667 3.21383204,5.91791667 C2.52635145,5.91791667 2.00654905,5.695 1.65442484,5.24930556 C1.30230064,4.80333333 1.12623853,4.20541667 1.12623853,3.45555556 C1.12623853,2.72222222 1.30230064,2.12833333 1.65442484,1.67430556 C2.00654905,1.22 2.52215949,0.992916667 3.20125618,0.992916667 C3.77974594,0.992916667 4.35390402,1.17208333 4.92414961,1.53055556 L5.31400141,0.780555556 C4.67668454,0.322083333 3.94742414,0.0929166667 3.12580099,0.0929166667 C2.40464502,0.0929166667 1.81357939,0.253472222 1.35260409,0.574166667 C0.89134933,0.894861111 0.55808892,1.30972222 0.352822865,1.81805556 C0.147277347,2.32625 0.0447141849,2.87222222 0.0447141849,3.45555556 C0.0447141849,4.47208333 0.325575159,5.28458333 0.887297107,5.89305556 C1.44887932,6.50125 2.22439097,6.80555556 3.21383204,6.80555556" id="path66"></path>
                                        </g>
                                        <g id="g68" transform="translate(59.725603, 16.197986)" fill="#FFFFFF" fill-rule="nonzero">
                                            <path d="M1.11785462,3.47222222 C1.11785462,2.71375 1.29182075,2.10347222 1.639753,1.64097222 C1.98754552,1.17847222 2.51377558,0.947222222 3.21802399,0.947222222 C3.93051658,0.947222222 4.46303458,1.17847222 4.81515879,1.64097222 C5.16728299,2.10347222 5.3433451,2.71375 5.3433451,3.47222222 C5.3433451,4.23041667 5.16728299,4.83472222 4.81515879,5.28472222 C4.46303458,5.73472222 3.93051658,5.95972222 3.21802399,5.95972222 C2.50539167,5.95972222 1.97706563,5.73472222 1.63346507,5.28472222 C1.28958504,4.83472222 1.11785462,4.23041667 1.11785462,3.47222222 M6.43744531,3.47222222 C6.43744531,2.81388889 6.30959068,2.22847222 6.05388144,1.71583333 C5.79803246,1.20347222 5.42914044,0.805277778 4.94720536,0.522083333 C4.46499083,0.238888889 3.88873677,0.0972222222 3.21802399,0.0972222222 C2.55569513,0.0972222222 1.98125759,0.240972222 1.49513056,0.528333333 C1.0088638,0.815972222 0.639971771,1.21375 0.388454481,1.72222222 C0.136937191,2.23041667 0.0111785462,2.81388889 0.0111785462,3.47222222 C0.0111785462,4.48875 0.29203952,5.29916667 0.853761468,5.90347222 C1.41534368,6.5075 2.20357092,6.80972222 3.21802399,6.80972222 C3.89712068,6.80972222 4.47756669,6.67 4.95978123,6.39097222 C5.44185603,6.11166667 5.80865208,5.72222222 6.06016937,5.22222222 C6.31168666,4.72222222 6.43744531,4.13888889 6.43744531,3.47222222" id="path70"></path>
                                        </g>
                                        <g id="g72" transform="translate(67.240618, 16.407681)" fill="#FFFFFF">
                                            <path d="M0.139731828,5 C0.139731828,5.46652778 0.110248412,5.94152778 0.0517007763,6.425 L1.0703458,6.425 C1.11212562,6.20013889 1.1414693,5.9 1.15837685,5.525 L1.18352858,5.525 C1.38474241,5.84166667 1.66769936,6.1 2.03239944,6.3 C2.39709951,6.5 2.81839097,6.60013889 3.29627382,6.60013889 C3.84108821,6.60013889 4.28543543,6.48527778 4.62931546,6.25625 C4.97291602,6.02708333 5.22443331,5.7125 5.38386733,5.3125 L5.40901905,5.3125 C5.62700071,5.7125 5.9246295,6.02708333 6.30190543,6.25625 C6.67918137,6.48527778 7.13191249,6.60013889 7.6600988,6.60013889 C8.18828511,6.60013889 8.62844037,6.48527778 8.98056457,6.25625 C9.33268878,6.02708333 9.59245025,5.72694444 9.76026817,5.35625 C9.92794637,4.98541667 10.0117855,4.57916667 10.0117855,4.1375 L10.0117855,0.0625 L8.94283698,0.0625 L8.94283698,3.9875 C8.94283698,4.47916667 8.82336627,4.89166667 8.58442484,5.225 C8.34548342,5.55833333 7.96191955,5.725 7.43373324,5.725 C7.04793366,5.725 6.71690896,5.625 6.44023994,5.42513889 C6.16357092,5.225 5.95383345,4.95819444 5.81144672,4.625 C5.66878052,4.29152778 5.59765702,3.93319444 5.59765702,3.55013889 L5.59765702,0.0625 L4.52870854,0.0625 L4.52870854,4.01263889 C4.52870854,4.49569444 4.40700212,4.90194444 4.16400847,5.23125 C3.92073536,5.56041667 3.53926747,5.725 3.0196048,5.725 C2.46626676,5.725 2.0261115,5.53125 1.69913903,5.14375 C1.37216655,4.75625 1.20868031,4.27916667 1.20868031,3.7125 L1.20868031,0.0625 L0.139731828,0.0625 L0.139731828,5 Z" id="path74"></path>
                                        </g>
                                        <g id="g76" transform="translate(78.660691, 16.407681)" fill="#FFFFFF">
                                            <path d="M0.139731828,5 C0.139731828,5.46652778 0.110248412,5.94152778 0.0517007763,6.425 L1.0703458,6.425 C1.11226535,6.20013889 1.1414693,5.9 1.15837685,5.525 L1.18352858,5.525 C1.38474241,5.84166667 1.66769936,6.1 2.03239944,6.3 C2.39709951,6.5 2.81839097,6.60013889 3.29627382,6.60013889 C3.84108821,6.60013889 4.28543543,6.48527778 4.62931546,6.25625 C4.97305575,6.02708333 5.22457304,5.7125 5.38386733,5.3125 L5.40901905,5.3125 C5.62700071,5.7125 5.9246295,6.02708333 6.30190543,6.25625 C6.67918137,6.48527778 7.13191249,6.60013889 7.6600988,6.60013889 C8.18828511,6.60013889 8.62844037,6.48527778 8.98056457,6.25625 C9.33268878,6.02708333 9.59245025,5.72694444 9.76026817,5.35625 C9.92794637,4.98541667 10.0117855,4.57916667 10.0117855,4.1375 L10.0117855,0.0625 L8.94283698,0.0625 L8.94283698,3.9875 C8.94283698,4.47916667 8.82336627,4.89166667 8.58442484,5.225 C8.34548342,5.55833333 7.96191955,5.725 7.43373324,5.725 C7.04793366,5.725 6.71690896,5.625 6.44023994,5.42513889 C6.16357092,5.225 5.95383345,4.95819444 5.81144672,4.625 C5.66878052,4.29152778 5.59765702,3.93319444 5.59765702,3.55013889 L5.59765702,0.0625 L4.52870854,0.0625 L4.52870854,4.01263889 C4.52870854,4.49569444 4.40700212,4.90194444 4.16400847,5.23125 C3.92073536,5.56041667 3.53926747,5.725 3.0196048,5.725 C2.46626676,5.725 2.0261115,5.53125 1.69913903,5.14375 C1.37216655,4.75625 1.20868031,4.27916667 1.20868031,3.7125 L1.20868031,0.0625 L0.139731828,0.0625 L0.139731828,5 Z" id="path78"></path>
                                        </g>
                                        <g id="g80" transform="translate(89.799400, 16.206264)" fill="#FFFFFF" fill-rule="nonzero">
                                            <path d="M4.89061397,3.88888889 C4.87370642,4.52222222 4.71022018,5.03055556 4.40001553,5.41388889 C4.0899506,5.79708333 3.6412717,5.98888889 3.05439802,5.98888889 C2.45914044,5.98888889 1.99816514,5.79083333 1.67119266,5.39527778 C1.34408045,4.99930556 1.16801835,4.49722222 1.14300635,3.88888889 L4.89061397,3.88888889 Z M5.90911927,3.06402778 L1.15558222,3.06402778 C1.19736203,2.41402778 1.39438391,1.89708333 1.74664785,1.51388889 C2.09877205,1.13041667 2.6016669,0.938888889 3.25575159,0.938888889 C3.6412717,0.938888889 3.98696824,0.990833333 4.29326041,1.09513889 C4.59913338,1.19916667 4.90724206,1.35555556 5.21758645,1.56402778 L5.6954693,0.876388889 C5.33482145,0.618055556 4.95125759,0.422083333 4.54463797,0.288888889 C4.13787862,0.155694444 3.6873832,0.0888888889 3.19287227,0.0888888889 C2.2118151,0.0888888889 1.44678335,0.397083333 0.897776994,1.01388889 C0.348491179,1.63055556 0.0739181369,2.45138889 0.0739181369,3.47638889 C0.0739181369,4.13472222 0.191292872,4.71388889 0.426182075,5.21388889 C0.660791814,5.71402778 1.00243613,6.10333333 1.45111503,6.38263889 C1.89951447,6.66180556 2.43818066,6.80152778 3.06697389,6.80152778 C3.99758786,6.80152778 4.70812421,6.50152778 5.19858292,5.90138889 C5.68918137,5.30138889 5.93441073,4.50541667 5.93441073,3.51402778 C5.93441073,3.31388889 5.92588709,3.16388889 5.90911927,3.06402778 L5.90911927,3.06402778 Z" id="path82"></path>
                                        </g>
                                        <g id="g84" transform="translate(96.806182, 16.407681)" fill="#FFFFFF">
                                            <path d="M0.139731828,5 C0.139731828,5.46652778 0.110248412,5.94152778 0.0515610445,6.425 L1.07020607,6.425 C1.11212562,6.14166667 1.1414693,5.80416667 1.15823712,5.4125 L1.18352858,5.4125 C1.55228088,6.20416667 2.22285392,6.60013889 3.19552717,6.60013889 C3.26259845,6.60013889 3.38430487,6.58763889 3.56022724,6.5625 L3.49734792,5.65013889 C3.41350882,5.66666667 3.28369795,5.675 3.10749612,5.675 C2.49547071,5.675 2.0261115,5.47083333 1.69899929,5.0625 C1.37202682,4.65416667 1.20854058,4.125 1.20854058,3.47513889 L1.20854058,0.0625 L0.139731828,0.0625 L0.139731828,5 Z" id="path86"></path>
                                        </g>
                                        <g id="g88" transform="translate(100.571983, 16.202194)" fill="#FFFFFF">
                                            <path d="M3.21383204,6.80555556 C3.6162597,6.80555556 3.99982357,6.74486111 4.36452364,6.62416667 C4.72936344,6.50333333 5.05410021,6.33458333 5.33915314,6.11805556 L4.91157375,5.38041667 C4.42530699,5.73861111 3.85939308,5.91791667 3.21383204,5.91791667 C2.52635145,5.91791667 2.00654905,5.695 1.65442484,5.24930556 C1.30230064,4.80333333 1.12637826,4.20541667 1.12637826,3.45555556 C1.12637826,2.72222222 1.30230064,2.12833333 1.65442484,1.67430556 C2.00654905,1.22 2.52215949,0.992916667 3.20125618,0.992916667 C3.77988567,0.992916667 4.35390402,1.17208333 4.92414961,1.53055556 L5.31400141,0.780555556 C4.67682428,0.322083333 3.94742414,0.0929166667 3.12580099,0.0929166667 C2.40464502,0.0929166667 1.81357939,0.253472222 1.35260409,0.574166667 C0.891489061,0.894861111 0.55808892,1.30972222 0.352822865,1.81805556 C0.147277347,2.32625 0.0447141849,2.87222222 0.0447141849,3.45555556 C0.0447141849,4.47208333 0.325575159,5.28458333 0.887297107,5.89305556 C1.44887932,6.50125 2.2245307,6.80555556 3.21383204,6.80555556" id="path90"></path>
                                        </g>
                                        <g id="g92" transform="translate(106.221844, 16.206264)" fill="#FFFFFF" fill-rule="nonzero">
                                            <path d="M4.89061397,3.88888889 C4.87370642,4.52222222 4.71022018,5.03055556 4.40015526,5.41388889 C4.0899506,5.79708333 3.64141143,5.98888889 3.05453776,5.98888889 C2.45928017,5.98888889 1.99816514,5.79083333 1.67119266,5.39527778 C1.34422018,4.99930556 1.16815808,4.49722222 1.14314608,3.88888889 L4.89061397,3.88888889 Z M5.909259,3.06402778 L1.15572195,3.06402778 C1.19736203,2.41402778 1.39452364,1.89708333 1.74664785,1.51388889 C2.09891179,1.13041667 2.60180663,0.938888889 3.25575159,0.938888889 C3.64141143,0.938888889 3.98710797,0.990833333 4.29340014,1.09513889 C4.59927311,1.19916667 4.90738179,1.35555556 5.21758645,1.56402778 L5.69560903,0.876388889 C5.33496119,0.618055556 4.95139732,0.422083333 4.5447777,0.288888889 C4.13801835,0.155694444 3.68752294,0.0888888889 3.193012,0.0888888889 C2.21195483,0.0888888889 1.44678335,0.397083333 0.897776994,1.01388889 C0.34863091,1.63055556 0.0740578687,2.45138889 0.0740578687,3.47638889 C0.0740578687,4.13472222 0.191432604,4.71388889 0.426182075,5.21388889 C0.660791814,5.71402778 1.00257586,6.10333333 1.45125476,6.38263889 C1.8996542,6.66180556 2.4383204,6.80152778 3.06711362,6.80152778 C3.99772759,6.80152778 4.70826394,6.50152778 5.19872265,5.90138889 C5.68918137,5.30138889 5.93455046,4.50541667 5.93455046,3.51402778 C5.93455046,3.31388889 5.92602682,3.16388889 5.909259,3.06402778 L5.909259,3.06402778 Z" id="path94"></path>
                                        </g>
                                        <g id="g96" transform="translate(115.594789, 16.202194)" fill="#FFFFFF">
                                            <path d="M3.21383204,6.80555556 C3.6162597,6.80555556 3.99982357,6.74486111 4.36452364,6.62416667 C4.72936344,6.50333333 5.05410021,6.33458333 5.33915314,6.11805556 L4.91157375,5.38041667 C4.42530699,5.73861111 3.85939308,5.91791667 3.21383204,5.91791667 C2.52635145,5.91791667 2.00654905,5.695 1.65442484,5.24930556 C1.30230064,4.80333333 1.12637826,4.20541667 1.12637826,3.45555556 C1.12637826,2.72222222 1.30230064,2.12833333 1.65442484,1.67430556 C2.00654905,1.22 2.52229922,0.992916667 3.20125618,0.992916667 C3.77988567,0.992916667 4.35390402,1.17208333 4.92414961,1.53055556 L5.31400141,0.780555556 C4.67682428,0.322083333 3.94742414,0.0929166667 3.12580099,0.0929166667 C2.40464502,0.0929166667 1.81357939,0.253472222 1.35274382,0.574166667 C0.891489061,0.894861111 0.558228652,1.30972222 0.352822865,1.81805556 C0.147417078,2.32625 0.0447141849,2.87222222 0.0447141849,3.45555556 C0.0447141849,4.47208333 0.325575159,5.28458333 0.887436838,5.89305556 C1.44887932,6.50125 2.2245307,6.80555556 3.21383204,6.80555556" id="path98"></path>
                                        </g>
                                        <polygon id="path100" fill="#FFFFFF" points="123.235368 16.4701389 122.166419 16.4701389 122.166419 25.3201389 123.235368 25.3201389"></polygon>
                                        <g id="g102" transform="translate(124.481678, 16.197986)" fill="#FFFFFF" fill-rule="nonzero">
                                            <path d="M1.11785462,3.47222222 C1.11785462,2.71375 1.29168102,2.10347222 1.639753,1.64097222 C1.98768525,1.17847222 2.51377558,0.947222222 3.21802399,0.947222222 C3.93051658,0.947222222 4.46303458,1.17847222 4.81515879,1.64097222 C5.16728299,2.10347222 5.3433451,2.71375 5.3433451,3.47222222 C5.3433451,4.23041667 5.16728299,4.83472222 4.81515879,5.28472222 C4.46303458,5.73472222 3.93051658,5.95972222 3.21802399,5.95972222 C2.50539167,5.95972222 1.97706563,5.73472222 1.63346507,5.28472222 C1.28958504,4.83472222 1.11785462,4.23041667 1.11785462,3.47222222 M6.43744531,3.47222222 C6.43744531,2.81388889 6.30945095,2.22847222 6.05388144,1.71583333 C5.79803246,1.20347222 5.42914044,0.805277778 4.94720536,0.522083333 C4.46499083,0.238888889 3.88873677,0.0972222222 3.21802399,0.0972222222 C2.55569513,0.0972222222 1.98125759,0.240972222 1.49513056,0.528333333 C1.0088638,0.815972222 0.639971771,1.21375 0.388454481,1.72222222 C0.136937191,2.23041667 0.0111785462,2.81388889 0.0111785462,3.47222222 C0.0111785462,4.48875 0.29203952,5.29916667 0.853761468,5.90347222 C1.41534368,6.5075 2.20357092,6.80972222 3.21802399,6.80972222 C3.89712068,6.80972222 4.47756669,6.67 4.95978123,6.39097222 C5.4417163,6.11166667 5.80865208,5.72222222 6.06016937,5.22222222 C6.31168666,4.72222222 6.43744531,4.13888889 6.43744531,3.47222222" id="path104"></path>
                                        </g>
                                        <g id="g106" transform="translate(131.925136, 16.293875)" fill="#FFFFFF">
                                            <path d="M0,2.63888889 L0,6.53875 L1.08138462,6.53875 L1.08138462,2.78875 C1.08138462,2.20541667 1.20909951,1.73666667 1.46494848,1.3825 C1.72065773,1.02819444 2.11679746,0.85125 2.65336768,0.85125 C3.24010162,0.85125 3.70988003,1.07 4.0618645,1.5075 C4.41412844,1.94513889 4.59019054,2.48888889 4.59019054,3.13888889 L4.59019054,6.53875 L5.65913903,6.53875 L5.65913903,1.58875 C5.65913903,1.13027778 5.68834298,0.659583333 5.74717008,0.17625 L4.72852505,0.17625 C4.68646577,0.442916667 4.65712209,0.780416667 4.640494,1.18875 L4.61520254,1.18875 C4.15408751,0.396944444 3.41616373,0.00125 2.40185039,0.00125 C1.60523924,0.00125 1.00592943,0.245 0.603501764,0.7325 C0.2010741,1.22 0,1.85541667 0,2.63888889" id="path108"></path>
                                        </g>
                                        <g id="g110" transform="translate(138.538378, 16.291028)" fill="#FFFFFF" fill-rule="nonzero">
                                            <path d="M5.17007763,2.91666667 L5.17007763,4.91666667 C4.91856034,5.23333333 4.63560339,5.46861111 4.32120677,5.62291667 C4.00681016,5.77708333 3.64406634,5.85416667 3.23353423,5.85416667 C2.61284545,5.85416667 2.12462244,5.62083333 1.76830628,5.15416667 C1.41185039,4.68736111 1.23383204,4.08319444 1.23383204,3.34166667 C1.23383204,2.57486111 1.40570219,1.96861111 1.74958222,1.52291667 C2.09304305,1.07694444 2.56687368,0.854166667 3.17051517,0.854166667 C3.77415667,0.854166667 4.25846718,1.04777778 4.62302752,1.43541667 C4.98772759,1.82291667 5.17007763,2.31666667 5.17007763,2.91666667 M6.32705716,0.179166667 L5.33356387,0.179166667 C5.2748765,0.545694444 5.24553282,0.862222222 5.24553282,1.12902778 L5.22038109,1.12902778 C4.74249824,0.379166667 3.97942272,0.00416666667 2.93157375,0.00416666667 C2.0261115,0.00416666667 1.33234298,0.312361111 0.850268172,0.929166667 C0.368053634,1.54583333 0.127155963,2.34986111 0.127155963,3.34166667 C0.127155963,3.97486111 0.246766408,4.54791667 0.485707833,5.06041667 C0.724649259,5.57291667 1.06601411,5.97694444 1.51064079,6.27291667 C1.95470854,6.56861111 2.47884263,6.71666667 3.08262385,6.71666667 C3.93764291,6.71666667 4.63350741,6.44166667 5.17007763,5.89166667 L5.17007763,9.02916667 L6.23902611,9.02916667 L6.23902611,1.59166667 C6.23902611,1.13319444 6.26823006,0.662361111 6.32705716,0.179166667" id="path112"></path>
                                        </g>
                                        <g id="g114" transform="translate(54.524812, 7.950167)" fill="#FFFFFF" fill-rule="nonzero">
                                            <path d="M2.5151729,1.80555556 C2.5151729,2.18888889 2.43091461,2.49305556 2.26267749,2.71805556 C2.09444037,2.94305556 1.86066902,3.05555556 1.56150318,3.05555556 C1.36615808,3.05555556 1.19163303,3.00972222 1.03806775,2.91819444 C0.884223006,2.82652778 0.765870148,2.70138889 0.682729711,2.54319444 C0.599589273,2.38472222 0.55808892,2.21194444 0.55808892,2.02430556 L0.55808892,0.968194444 C0.699357798,0.826388889 0.843700776,0.72125 0.991257586,0.6525 C1.13867466,0.58375 1.30397742,0.549305556 1.48674665,0.549305556 C1.81497671,0.549305556 2.06845025,0.665 2.24716725,0.89625 C2.42574453,1.1275 2.5151729,1.43069444 2.5151729,1.80555556 M3.05733239,1.80555556 C3.05733239,1.48888889 2.99906422,1.20347222 2.88280734,0.949305556 C2.76655046,0.695138889 2.59398165,0.494166667 2.36552011,0.34625 C2.13691884,0.198472222 1.86486097,0.124444444 1.54906704,0.124444444 C1.15013267,0.124444444 0.805274524,0.263888889 0.51449259,0.543055556 L0.464608327,0.211805556 L0.028365561,0.211805556 L0.028365561,4.63694444 L0.55808892,4.63694444 L0.55808892,2.93694444 L0.576812985,2.93694444 C0.680633733,3.10763889 0.823998589,3.24097222 1.00690755,3.33680556 C1.18967678,3.43263889 1.40570219,3.48069444 1.65498377,3.48069444 C1.95834157,3.48069444 2.21600706,3.40652778 2.42784051,3.25875 C2.63981369,3.11069444 2.79757092,2.91083333 2.9015314,2.65875 C3.00535215,2.40652778 3.05733239,2.12222222 3.05733239,1.80555556" id="path116"></path>
                                        </g>
                                        <g id="g118" transform="translate(57.815134, 8.091222)" fill="#FFFFFF">
                                            <path d="M3.07410021,3.33333333 C3.07410021,3.03736111 3.01177982,2.77180556 2.88713903,2.53652778 C2.76249824,2.30097222 2.55359915,2.04152778 2.26072124,1.75833333 C1.96784333,1.47486111 1.50351447,1.06666667 0.867734651,0.533333333 L3.21746507,0.533333333 L3.21746507,0.0708333333 L0.138474241,0.0708333333 L0.138474241,0.502083333 C0.857254764,1.12291667 1.36951164,1.57791667 1.67482569,1.86763889 C1.98027946,2.15722222 2.19630487,2.40611111 2.32304164,2.61458333 C2.44977841,2.82277778 2.51307692,3.04583333 2.51307692,3.28333333 C2.51307692,3.5375 2.42588426,3.74361111 2.25135921,3.90208333 C2.07683416,4.06027778 1.83789273,4.13958333 1.53453493,4.13958333 C1.30188144,4.13958333 1.09731404,4.09583333 0.920693013,4.00819444 C0.744071983,3.92069444 0.56647283,3.78958333 0.387755822,3.61444444 L0.0575695131,3.90208333 C0.277647142,4.13527778 0.504012703,4.30916667 0.736805928,4.42402778 C0.969459421,4.53847222 1.2499012,4.59583333 1.578271,4.59583333 C1.88987297,4.59583333 2.15885674,4.53847222 2.38536203,4.42402778 C2.61172759,4.30916667 2.78317855,4.15611111 2.89957516,3.96458333 C3.01583204,3.77277778 3.07410021,3.56236111 3.07410021,3.33333333" id="path120"></path>
                                        </g>
                                        <g id="g122" transform="translate(61.614302, 7.950167)" fill="#FFFFFF" fill-rule="nonzero">
                                            <path d="M2.5151729,1.80555556 C2.5151729,2.18888889 2.43091461,2.49305556 2.26267749,2.71805556 C2.09444037,2.94305556 1.86066902,3.05555556 1.56150318,3.05555556 C1.36615808,3.05555556 1.19163303,3.00972222 1.03806775,2.91819444 C0.884223006,2.82652778 0.765870148,2.70138889 0.682729711,2.54319444 C0.599589273,2.38472222 0.55808892,2.21194444 0.55808892,2.02430556 L0.55808892,0.968194444 C0.699357798,0.826388889 0.843700776,0.72125 0.991257586,0.6525 C1.13867466,0.58375 1.30397742,0.549305556 1.48674665,0.549305556 C1.81497671,0.549305556 2.06845025,0.665 2.24716725,0.89625 C2.42574453,1.1275 2.5151729,1.43069444 2.5151729,1.80555556 M3.05733239,1.80555556 C3.05733239,1.48888889 2.99906422,1.20347222 2.88280734,0.949305556 C2.76655046,0.695138889 2.59398165,0.494166667 2.36552011,0.34625 C2.13691884,0.198472222 1.86486097,0.124444444 1.54906704,0.124444444 C1.15013267,0.124444444 0.805274524,0.263888889 0.51449259,0.543055556 L0.464608327,0.211805556 L0.028365561,0.211805556 L0.028365561,4.63694444 L0.55808892,4.63694444 L0.55808892,2.93694444 L0.576812985,2.93694444 C0.680633733,3.10763889 0.823998589,3.24097222 1.00690755,3.33680556 C1.18967678,3.43263889 1.40570219,3.48069444 1.65498377,3.48069444 C1.95834157,3.48069444 2.21600706,3.40652778 2.42784051,3.25875 C2.63981369,3.11069444 2.79757092,2.91083333 2.9015314,2.65875 C3.00535215,2.40652778 3.05733239,2.12222222 3.05733239,1.80555556" id="path124"></path>
                                        </g>
                                        <g id="g126" transform="translate(66.665790, 7.958583)" fill="#FFFFFF">
                                            <path d="M1.67678193,3.47222222 C1.87631898,3.47222222 2.06635427,3.44194444 2.24716725,3.38166667 C2.42784051,3.32111111 2.58881157,3.23680556 2.73008045,3.12833333 L2.518247,2.75972222 C2.2772096,2.93875 1.99676782,3.02847222 1.67678193,3.02847222 C1.33611574,3.02847222 1.07845025,2.91694444 0.903925194,2.69402778 C0.729400141,2.47111111 0.642207481,2.17222222 0.642207481,1.79708333 C0.642207481,1.43055556 0.729400141,1.13361111 0.903925194,0.906527778 C1.07845025,0.679444444 1.33401976,0.565972222 1.67063373,0.565972222 C1.95722371,0.565972222 2.24185745,0.655555556 2.5243952,0.834722222 L2.71764432,0.459722222 C2.40185039,0.230416667 2.04036415,0.115972222 1.6331856,0.115972222 C1.27575159,0.115972222 0.982873677,0.19625 0.754412138,0.356527778 C0.525810868,0.516944444 0.360647848,0.724305556 0.258923077,0.978472222 C0.157058574,1.2325 0.106196189,1.50555556 0.106196189,1.79708333 C0.106196189,2.30555556 0.24536909,2.71166667 0.523854622,3.01597222 C0.802060692,3.32 1.18646295,3.47222222 1.67678193,3.47222222" id="path128"></path>
                                        </g>
                                        <g id="g130" transform="translate(69.629711, 7.956403)" fill="#FFFFFF" fill-rule="nonzero">
                                            <path d="M0.558927311,1.80555556 C0.558927311,1.42652778 0.645141849,1.12125 0.817570924,0.89 C0.99,0.65875 1.25073959,0.543055556 1.5997897,0.543055556 C1.95289203,0.543055556 2.21684545,0.65875 2.3913705,0.89 C2.56589555,1.12125 2.65308821,1.42652778 2.65308821,1.80555556 C2.65308821,2.18472222 2.56589555,2.48680556 2.3913705,2.71180556 C2.21684545,2.93694444 1.95289203,3.04930556 1.5997897,3.04930556 C1.24654764,3.04930556 0.984829922,2.93694444 0.814496824,2.71180556 C0.644023994,2.48680556 0.558927311,2.18472222 0.558927311,1.80555556 M3.19538744,1.80555556 C3.19538744,1.47638889 3.13194919,1.18375 3.00521242,0.9275 C2.87847565,0.67125 2.69570642,0.472222222 2.456765,0.330694444 C2.21782357,0.189027778 1.93221171,0.118194444 1.5997897,0.118194444 C1.27155963,0.118194444 0.9869259,0.19 0.745888497,0.33375 C0.504851094,0.477361111 0.322081863,0.676388889 0.197441073,0.930555556 C0.0728002823,1.18472222 0.0104798871,1.47638889 0.0104798871,1.80555556 C0.0104798871,2.31388889 0.149652788,2.71902778 0.427998589,3.02125 C0.70634439,3.32333333 1.09703458,3.47444444 1.5997897,3.47444444 C1.93626394,3.47444444 2.2241115,3.40458333 2.4629132,3.265 C2.70185462,3.12541667 2.88364573,2.93069444 3.00828652,2.68069444 C3.13292731,2.43055556 3.19538744,2.13888889 3.19538744,1.80555556" id="path132"></path>
                                        </g>
                                        <g id="g134" transform="translate(73.345907, 8.130833)" fill="#FFFFFF">
                                            <path d="M0.139731828,2.5 C0.139731828,2.73333333 0.125199718,2.97083333 0.0961354975,3.2125 L0.600986591,3.2125 C0.621666902,3.09986111 0.636199012,2.94986111 0.644582922,2.7625 L0.657019054,2.7625 C0.756787579,2.92069444 0.896938603,3.05 1.07775159,3.15 C1.25842484,3.24986111 1.46718419,3.3 1.70416937,3.3 C1.97413126,3.3 2.19434862,3.24263889 2.36482145,3.12805556 C2.53501482,3.01333333 2.65965561,2.85611111 2.73860409,2.65625 L2.75117996,2.65625 C2.85905293,2.85611111 3.00660974,3.01333333 3.19371066,3.12805556 C3.38067184,3.24263889 3.60494143,3.3 3.86665914,3.3 C4.12851658,3.3 4.34663797,3.24263889 4.52116302,3.12805556 C4.69568807,3.01333333 4.82452082,2.86333333 4.90766126,2.67805556 C4.99066196,2.49263889 5.03216231,2.28944444 5.03216231,2.06875 L5.03216231,0.03125 L4.50243896,0.03125 L4.50243896,1.99361111 C4.50243896,2.23944444 4.44319266,2.44569444 4.3248398,2.6125 C4.20648694,2.77902778 4.01645166,2.86236111 3.75459421,2.86236111 C3.56330134,2.86236111 3.39939591,2.8125 3.26217925,2.71236111 C3.12510233,2.6125 3.02128158,2.47916667 2.95057728,2.31236111 C2.87987297,2.14569444 2.84466055,1.96652778 2.84466055,1.77486111 L2.84466055,0.03125 L2.31493719,0.03125 L2.31493719,2.00611111 C2.31493719,2.24791667 2.25457304,2.45083333 2.13412421,2.61555556 C2.01367537,2.78013889 1.82461821,2.86236111 1.56695272,2.86236111 C1.29279887,2.86236111 1.07453776,2.76555556 0.912588567,2.57194444 C0.750499647,2.37805556 0.669594919,2.13944444 0.669594919,1.85611111 L0.669594919,0.03125 L0.139731828,0.03125 L0.139731828,2.5 Z" id="path136"></path>
                                        </g>
                                        <g id="g138" transform="translate(79.062965, 8.130833)" fill="#FFFFFF">
                                            <path d="M0.139731828,2.5 C0.139731828,2.73333333 0.125199718,2.97083333 0.0961354975,3.2125 L0.600986591,3.2125 C0.621666902,3.09986111 0.636199012,2.94986111 0.644582922,2.7625 L0.657019054,2.7625 C0.756787579,2.92069444 0.896938603,3.05 1.07775159,3.15 C1.25856457,3.24986111 1.46732392,3.3 1.70402964,3.3 C1.97413126,3.3 2.19434862,3.24263889 2.36482145,3.12805556 C2.53515455,3.01333333 2.65965561,2.85611111 2.73874382,2.65625 L2.75117996,2.65625 C2.85919266,2.85611111 3.00674947,3.01333333 3.19371066,3.12805556 C3.38067184,3.24263889 3.60508116,3.3 3.86679887,3.3 C4.12865632,3.3 4.34663797,3.24263889 4.52116302,3.12805556 C4.69568807,3.01333333 4.82452082,2.86333333 4.90766126,2.67805556 C4.99080169,2.49263889 5.03230205,2.28944444 5.03230205,2.06875 L5.03230205,0.03125 L4.50257869,0.03125 L4.50257869,1.99361111 C4.50257869,2.23944444 4.44333239,2.44569444 4.3248398,2.6125 C4.20648694,2.77902778 4.01645166,2.86236111 3.75459421,2.86236111 C3.56344107,2.86236111 3.39939591,2.8125 3.26231898,2.71236111 C3.12510233,2.6125 3.02128158,2.47916667 2.95057728,2.31236111 C2.87987297,2.14569444 2.84466055,1.96652778 2.84466055,1.77486111 L2.84466055,0.03125 L2.31479746,0.03125 L2.31479746,2.00611111 C2.31479746,2.24791667 2.25471277,2.45083333 2.13412421,2.61555556 C2.01353564,2.78013889 1.82461821,2.86236111 1.56695272,2.86236111 C1.29279887,2.86236111 1.07453776,2.76555556 0.912588567,2.57194444 C0.750499647,2.37805556 0.669455187,2.13944444 0.669455187,1.85611111 L0.669455187,0.03125 L0.139731828,0.03125 L0.139731828,2.5 Z" id="path140"></path>
                                        </g>
                                        <g id="g142" transform="translate(84.618535, 8.030056)" fill="#FFFFFF" fill-rule="nonzero">
                                            <path d="M2.5151729,1.94444444 C2.50678899,2.26097222 2.42574453,2.51527778 2.27217925,2.70694444 C2.11833451,2.89861111 1.89602117,2.99458333 1.60523924,2.99458333 C1.31012562,2.99458333 1.08166408,2.89555556 0.919575159,2.69763889 C0.75762597,2.49958333 0.670293578,2.24847222 0.657857445,1.94444444 L2.5151729,1.94444444 Z M3.02002399,1.53194444 L0.664145378,1.53194444 C0.684825688,1.20694444 0.782637968,0.948611111 0.957023289,0.756944444 C1.13154834,0.565277778 1.38082992,0.469444444 1.70486803,0.469444444 C1.89602117,0.469444444 2.06747212,0.495416667 2.21922089,0.5475 C2.37082992,0.599583333 2.52355681,0.677777778 2.67726182,0.781944444 L2.91396754,0.438194444 C2.73539026,0.309027778 2.54535498,0.211111111 2.34372195,0.144444444 C2.14222865,0.0779166667 1.91879746,0.0444444444 1.67384757,0.0444444444 C1.1875808,0.0444444444 0.808348624,0.198611111 0.536290755,0.506944444 C0.264232886,0.815277778 0.128134086,1.22569444 0.128134086,1.73833333 C0.128134086,2.06736111 0.186262526,2.35694444 0.302659139,2.60708333 C0.41891602,2.85694444 0.588270995,3.05180556 0.810584333,3.19138889 C1.03289767,3.33083333 1.29992519,3.40069444 1.61138744,3.40069444 C2.0726422,3.40069444 2.42490614,3.25069444 2.66789979,2.95069444 C2.91089344,2.65069444 3.03246013,2.25277778 3.03246013,1.75694444 C3.03246013,1.65708333 3.02826817,1.58208333 3.02002399,1.53194444 L3.02002399,1.53194444 Z" id="path144"></path>
                                        </g>
                                        <g id="g146" transform="translate(88.168743, 8.130833)" fill="#FFFFFF">
                                            <path d="M0.139731828,2.5 C0.139731828,2.73333333 0.125199718,2.97083333 0.0961354975,3.2125 L0.600986591,3.2125 C0.621666902,3.07069444 0.636199012,2.90208333 0.644582922,2.70611111 L0.657019054,2.70611111 C0.839928017,3.10194444 1.1722103,3.3 1.65428511,3.3 C1.68740155,3.3 1.7477657,3.29375 1.83495836,3.28125 L1.80379817,2.825 C1.76215808,2.83319444 1.69788144,2.8375 1.61054905,2.8375 C1.30719125,2.8375 1.07453776,2.73527778 0.912588567,2.53125 C0.750499647,2.32694444 0.669455187,2.0625 0.669455187,1.7375 L0.669455187,0.03125 L0.139731828,0.03125 L0.139731828,2.5 Z" id="path148"></path>
                                        </g>
                                        <g id="g150" transform="translate(90.078318, 7.958583)" fill="#FFFFFF">
                                            <path d="M1.67678193,3.47222222 C1.87617925,3.47222222 2.06621454,3.44194444 2.24702752,3.38166667 C2.42770078,3.32111111 2.58867184,3.23680556 2.73008045,3.12833333 L2.51810727,2.75972222 C2.27706987,2.93875 1.99662809,3.02847222 1.67678193,3.02847222 C1.33611574,3.02847222 1.07845025,2.91694444 0.903925194,2.69402778 C0.729400141,2.47111111 0.642207481,2.17222222 0.642207481,1.79708333 C0.642207481,1.43055556 0.729400141,1.13361111 0.903925194,0.906527778 C1.07845025,0.679444444 1.33401976,0.565972222 1.670494,0.565972222 C1.95722371,0.565972222 2.24171771,0.655555556 2.52425547,0.834722222 L2.71750459,0.459722222 C2.40171066,0.230416667 2.04036415,0.115972222 1.6331856,0.115972222 C1.27575159,0.115972222 0.982733945,0.19625 0.754272406,0.356527778 C0.525810868,0.516944444 0.360647848,0.724305556 0.258923077,0.978472222 C0.156918843,1.2325 0.106196189,1.50555556 0.106196189,1.79708333 C0.106196189,2.30555556 0.24536909,2.71166667 0.523714891,3.01597222 C0.802060692,3.32 1.18632322,3.47222222 1.67678193,3.47222222" id="path152"></path>
                                        </g>
                                        <g id="g154" transform="translate(92.931349, 8.030056)" fill="#FFFFFF" fill-rule="nonzero">
                                            <path d="M2.5151729,1.94444444 C2.50678899,2.26097222 2.42574453,2.51527778 2.27217925,2.70694444 C2.11833451,2.89861111 1.89602117,2.99458333 1.60523924,2.99458333 C1.31012562,2.99458333 1.08166408,2.89555556 0.919575159,2.69763889 C0.75762597,2.49958333 0.670293578,2.24847222 0.657857445,1.94444444 L2.5151729,1.94444444 Z M3.02002399,1.53194444 L0.664145378,1.53194444 C0.684825688,1.20694444 0.782637968,0.948611111 0.957023289,0.756944444 C1.13154834,0.565277778 1.38082992,0.469444444 1.70486803,0.469444444 C1.89602117,0.469444444 2.06747212,0.495416667 2.21922089,0.5475 C2.37082992,0.599583333 2.52355681,0.677777778 2.67726182,0.781944444 L2.91396754,0.438194444 C2.73539026,0.309027778 2.54535498,0.211111111 2.34372195,0.144444444 C2.14222865,0.0779166667 1.91879746,0.0444444444 1.67384757,0.0444444444 C1.1875808,0.0444444444 0.808348624,0.198611111 0.536290755,0.506944444 C0.264232886,0.815277778 0.128134086,1.22569444 0.128134086,1.73833333 C0.128134086,2.06736111 0.186262526,2.35694444 0.302659139,2.60708333 C0.41891602,2.85694444 0.588270995,3.05180556 0.810584333,3.19138889 C1.03289767,3.33083333 1.29992519,3.40069444 1.61138744,3.40069444 C2.0726422,3.40069444 2.42490614,3.25069444 2.66789979,2.95069444 C2.91089344,2.65069444 3.03246013,2.25277778 3.03246013,1.75694444 C3.03246013,1.65708333 3.02826817,1.58208333 3.02002399,1.53194444 L3.02002399,1.53194444 Z" id="path156"></path>
                                        </g>
                                    </g>
                                </g>
                            </g>
                        </g>
                    </g>
                </g>
            </g>
        </g>
    </g>
</svg>