<?xml version="1.0" encoding="UTF-8" standalone="no"?>
	<svg width="120" height="120" viewBox="0 0 120 120" xmlns="http://www.w3.org/2000/svg" xmlns:xlink="http://www.w3.org/1999/xlink">
    	<g stroke="none" stroke-width="1" fill="none" fill-rule="evenodd">
			<path d="M120,108 C120,114.6 114.6,120 108,120 L12,120 C5.4,120 0,114.6 0,108 L0,12 C0,5.4 5.4,0 12,0 L108,0 C114.6,0 120,5.4 120,12 L120,108 L120,108 Z" id="Shape" fill="#9D97E7"/>
			<g transform="scale(1.2)">
            	<path d="m74 29h-48c-3.3 0-6 2.7-6 6v29c0 3.3 2.7 6 6 6h48c3.3 0 6-2.7 6-6v-29c0-3.3-2.7-6-6-6z m-25.4 34h-17.2c-1.9 0-3.4-2.1-3.4-4.1 0.1-3 3.2-4.8 6.5-6.3 2.3-1 2.6-1.9 2.6-2.9s-0.6-1.9-1.4-2.6c-1.3-1.2-2.1-3-2.1-5 0-3.8 2.3-7 6.3-7s6.3 3.2 6.3 7c0 2-0.7 3.8-2.1 5-0.8 0.7-1.4 1.6-1.4 2.6s0.3 1.9 2.6 2.8c3.3 1.4 6.4 3.4 6.5 6.4 0.2 2-1.3 4.1-3.2 4.1z m23.4-7c0 1.1-0.9 2-2 2h-9c-1.1 0-2-0.9-2-2v-3c0-1.1 0.9-2 2-2h9c1.1 0 2 0.9 2 2v3z m0-11c0 1.1-0.9 2-2 2h-15c-1.1 0-2-0.9-2-2v-3c0-1.1 0.9-2 2-2h15c1.1 0 2 0.9 2 2v3z" id="Path-1" fill="#FFFFFF"/>
            </g>
		</g>
   	</svg>